<mxfile host="app.diagrams.net" agent="Mozilla/5.0 (Windows NT 10.0; Win64; x64; rv:133.0) Gecko/20100101 Firefox/133.0" version="25.0.3">
  <diagram name="Page-1" id="dIJWTh7p2U-8Sy8qiCkg">
    <mxGraphModel dx="1485" dy="791" grid="1" gridSize="10" guides="1" tooltips="1" connect="1" arrows="1" fold="1" page="1" pageScale="1" pageWidth="827" pageHeight="1169" math="0" shadow="0">
      <root>
        <mxCell id="0" />
        <mxCell id="1" parent="0" />
        <mxCell id="XDiG-Vu3PWWN5GJQWQn_-1" value="Client" style="shape=umlActor;verticalLabelPosition=bottom;verticalAlign=top;html=1;outlineConnect=0;fontSize=15;" parent="1" vertex="1">
          <mxGeometry x="40" y="192" width="30" height="60" as="geometry" />
        </mxCell>
        <mxCell id="XDiG-Vu3PWWN5GJQWQn_-2" value="&lt;font&gt;&amp;nbsp;Web Application&lt;/font&gt;" style="html=1;shape=mxgraph.sysml.package;overflow=fill;labelX=123.75;align=left;spacingLeft=5;verticalAlign=top;spacingTop=-3;fontSize=15;" parent="1" vertex="1">
          <mxGeometry x="190" y="160" width="370" height="200" as="geometry" />
        </mxCell>
        <mxCell id="YMdhZk9BwAZFzqvucl1a-2" style="edgeStyle=orthogonalEdgeStyle;rounded=0;orthogonalLoop=1;jettySize=auto;html=1;exitX=0.75;exitY=0;exitDx=0;exitDy=0;entryX=0.756;entryY=1.008;entryDx=0;entryDy=0;entryPerimeter=0;" parent="1" source="XDiG-Vu3PWWN5GJQWQn_-3" target="XDiG-Vu3PWWN5GJQWQn_-4" edge="1">
          <mxGeometry relative="1" as="geometry" />
        </mxCell>
        <mxCell id="YMdhZk9BwAZFzqvucl1a-10" value="Render" style="edgeLabel;html=1;align=center;verticalAlign=middle;resizable=0;points=[];" parent="YMdhZk9BwAZFzqvucl1a-2" connectable="0" vertex="1">
          <mxGeometry x="0.0171" relative="1" as="geometry">
            <mxPoint x="19" as="offset" />
          </mxGeometry>
        </mxCell>
        <mxCell id="YMdhZk9BwAZFzqvucl1a-5" style="edgeStyle=orthogonalEdgeStyle;rounded=0;orthogonalLoop=1;jettySize=auto;html=1;exitX=1;exitY=0.25;exitDx=0;exitDy=0;entryX=0.25;entryY=1;entryDx=0;entryDy=0;" parent="1" source="XDiG-Vu3PWWN5GJQWQn_-3" target="XDiG-Vu3PWWN5GJQWQn_-5" edge="1">
          <mxGeometry relative="1" as="geometry" />
        </mxCell>
        <mxCell id="YMdhZk9BwAZFzqvucl1a-11" value="Uses" style="edgeLabel;html=1;align=center;verticalAlign=middle;resizable=0;points=[];" parent="YMdhZk9BwAZFzqvucl1a-5" connectable="0" vertex="1">
          <mxGeometry x="-0.3027" y="1" relative="1" as="geometry">
            <mxPoint y="-8" as="offset" />
          </mxGeometry>
        </mxCell>
        <mxCell id="XDiG-Vu3PWWN5GJQWQn_-3" value="Controller" style="rounded=1;whiteSpace=wrap;html=1;fontSize=15;" parent="1" vertex="1">
          <mxGeometry x="211" y="290" width="110" height="50" as="geometry" />
        </mxCell>
        <mxCell id="XDiG-Vu3PWWN5GJQWQn_-7" style="edgeStyle=orthogonalEdgeStyle;rounded=0;orthogonalLoop=1;jettySize=auto;html=1;fontSize=15;" parent="1" source="XDiG-Vu3PWWN5GJQWQn_-4" target="XDiG-Vu3PWWN5GJQWQn_-1" edge="1">
          <mxGeometry relative="1" as="geometry">
            <Array as="points">
              <mxPoint x="180" y="230" />
              <mxPoint x="180" y="230" />
            </Array>
          </mxGeometry>
        </mxCell>
        <mxCell id="XDiG-Vu3PWWN5GJQWQn_-9" value="Response" style="edgeLabel;html=1;align=center;verticalAlign=middle;resizable=0;points=[];fontSize=15;" parent="XDiG-Vu3PWWN5GJQWQn_-7" vertex="1" connectable="0">
          <mxGeometry x="0.0846" y="2" relative="1" as="geometry">
            <mxPoint x="-4" y="11" as="offset" />
          </mxGeometry>
        </mxCell>
        <mxCell id="YMdhZk9BwAZFzqvucl1a-1" style="edgeStyle=orthogonalEdgeStyle;rounded=0;orthogonalLoop=1;jettySize=auto;html=1;exitX=0.25;exitY=1;exitDx=0;exitDy=0;" parent="1" source="XDiG-Vu3PWWN5GJQWQn_-4" edge="1">
          <mxGeometry relative="1" as="geometry">
            <mxPoint x="240" y="290" as="targetPoint" />
            <Array as="points">
              <mxPoint x="240" y="249" />
              <mxPoint x="240" y="290" />
            </Array>
          </mxGeometry>
        </mxCell>
        <mxCell id="YMdhZk9BwAZFzqvucl1a-9" value="Request" style="edgeLabel;html=1;align=center;verticalAlign=middle;resizable=0;points=[];" parent="YMdhZk9BwAZFzqvucl1a-1" connectable="0" vertex="1">
          <mxGeometry x="-0.1034" relative="1" as="geometry">
            <mxPoint x="-23" y="-1" as="offset" />
          </mxGeometry>
        </mxCell>
        <mxCell id="XDiG-Vu3PWWN5GJQWQn_-4" value="View" style="rounded=1;whiteSpace=wrap;html=1;fontSize=15;" parent="1" vertex="1">
          <mxGeometry x="210" y="199" width="110" height="50" as="geometry" />
        </mxCell>
        <mxCell id="YMdhZk9BwAZFzqvucl1a-6" style="edgeStyle=orthogonalEdgeStyle;rounded=0;orthogonalLoop=1;jettySize=auto;html=1;exitX=0.75;exitY=1;exitDx=0;exitDy=0;entryX=1;entryY=0.75;entryDx=0;entryDy=0;" parent="1" source="XDiG-Vu3PWWN5GJQWQn_-5" target="XDiG-Vu3PWWN5GJQWQn_-3" edge="1">
          <mxGeometry relative="1" as="geometry" />
        </mxCell>
        <mxCell id="YMdhZk9BwAZFzqvucl1a-12" value="Send Data" style="edgeLabel;html=1;align=center;verticalAlign=middle;resizable=0;points=[];" parent="YMdhZk9BwAZFzqvucl1a-6" connectable="0" vertex="1">
          <mxGeometry x="0.2251" y="1" relative="1" as="geometry">
            <mxPoint as="offset" />
          </mxGeometry>
        </mxCell>
        <mxCell id="XDiG-Vu3PWWN5GJQWQn_-5" value="Models" style="rounded=1;whiteSpace=wrap;html=1;fontSize=15;glass=0;" parent="1" vertex="1">
          <mxGeometry x="390" y="220" width="110" height="50" as="geometry" />
        </mxCell>
        <mxCell id="XDiG-Vu3PWWN5GJQWQn_-6" style="edgeStyle=orthogonalEdgeStyle;rounded=0;orthogonalLoop=1;jettySize=auto;html=1;exitX=1;exitY=0.3333333333333333;exitDx=0;exitDy=0;exitPerimeter=0;entryX=0;entryY=0.25;entryDx=0;entryDy=0;fontSize=15;" parent="1" source="XDiG-Vu3PWWN5GJQWQn_-1" target="XDiG-Vu3PWWN5GJQWQn_-4" edge="1">
          <mxGeometry relative="1" as="geometry" />
        </mxCell>
        <mxCell id="XDiG-Vu3PWWN5GJQWQn_-8" value="HTTP Request" style="edgeLabel;html=1;align=center;verticalAlign=middle;resizable=0;points=[];fontSize=15;" parent="XDiG-Vu3PWWN5GJQWQn_-6" vertex="1" connectable="0">
          <mxGeometry x="-0.1648" y="2" relative="1" as="geometry">
            <mxPoint y="-12" as="offset" />
          </mxGeometry>
        </mxCell>
        <mxCell id="XDiG-Vu3PWWN5GJQWQn_-12" style="edgeStyle=orthogonalEdgeStyle;rounded=0;orthogonalLoop=1;jettySize=auto;html=1;entryX=1;entryY=0.5;entryDx=0;entryDy=0;fontSize=15;exitX=0;exitY=0.15;exitDx=0;exitDy=0;exitPerimeter=0;" parent="1" source="XDiG-Vu3PWWN5GJQWQn_-10" target="XDiG-Vu3PWWN5GJQWQn_-5" edge="1">
          <mxGeometry relative="1" as="geometry">
            <Array as="points">
              <mxPoint x="750" y="446" />
              <mxPoint x="750" y="245" />
            </Array>
          </mxGeometry>
        </mxCell>
        <mxCell id="XDiG-Vu3PWWN5GJQWQn_-14" value="Send Data" style="edgeLabel;html=1;align=center;verticalAlign=middle;resizable=0;points=[];fontSize=15;" parent="XDiG-Vu3PWWN5GJQWQn_-12" vertex="1" connectable="0">
          <mxGeometry x="0.1986" y="-1" relative="1" as="geometry">
            <mxPoint y="12" as="offset" />
          </mxGeometry>
        </mxCell>
        <mxCell id="XDiG-Vu3PWWN5GJQWQn_-10" value="DB" style="strokeWidth=1;html=1;shape=mxgraph.flowchart.database;whiteSpace=wrap;fontSize=15;shadow=0;" parent="1" vertex="1">
          <mxGeometry x="734" y="437" width="60" height="60" as="geometry" />
        </mxCell>
        <mxCell id="XDiG-Vu3PWWN5GJQWQn_-11" style="edgeStyle=orthogonalEdgeStyle;rounded=0;orthogonalLoop=1;jettySize=auto;html=1;exitX=1;exitY=0.25;exitDx=0;exitDy=0;fontSize=15;" parent="1" source="XDiG-Vu3PWWN5GJQWQn_-5" target="XDiG-Vu3PWWN5GJQWQn_-10" edge="1">
          <mxGeometry relative="1" as="geometry">
            <Array as="points">
              <mxPoint x="770" y="232" />
            </Array>
          </mxGeometry>
        </mxCell>
        <mxCell id="XDiG-Vu3PWWN5GJQWQn_-13" value="Requests" style="edgeLabel;html=1;align=center;verticalAlign=middle;resizable=0;points=[];fontSize=15;" parent="XDiG-Vu3PWWN5GJQWQn_-11" vertex="1" connectable="0">
          <mxGeometry x="-0.1811" y="2" relative="1" as="geometry">
            <mxPoint y="-11" as="offset" />
          </mxGeometry>
        </mxCell>
        <mxCell id="XDiG-Vu3PWWN5GJQWQn_-15" value="&lt;font&gt;&amp;nbsp;API&lt;/font&gt;" style="html=1;shape=mxgraph.sysml.package;overflow=fill;labelX=36.25;align=left;spacingLeft=5;verticalAlign=top;spacingTop=-3;fontSize=15;strokeWidth=1;perimeterSpacing=0;" parent="1" vertex="1">
          <mxGeometry x="460" y="660" width="190" height="200" as="geometry" />
        </mxCell>
        <mxCell id="YMdhZk9BwAZFzqvucl1a-8" style="edgeStyle=orthogonalEdgeStyle;rounded=0;orthogonalLoop=1;jettySize=auto;html=1;exitX=0.75;exitY=1;exitDx=0;exitDy=0;entryX=0.75;entryY=0;entryDx=0;entryDy=0;" parent="1" source="XDiG-Vu3PWWN5GJQWQn_-16" target="XDiG-Vu3PWWN5GJQWQn_-17" edge="1">
          <mxGeometry relative="1" as="geometry" />
        </mxCell>
        <mxCell id="YMdhZk9BwAZFzqvucl1a-13" value="Uses" style="edgeLabel;html=1;align=center;verticalAlign=middle;resizable=0;points=[];" parent="YMdhZk9BwAZFzqvucl1a-8" connectable="0" vertex="1">
          <mxGeometry x="-0.3673" relative="1" as="geometry">
            <mxPoint x="23" as="offset" />
          </mxGeometry>
        </mxCell>
        <mxCell id="XDiG-Vu3PWWN5GJQWQn_-16" value="&lt;font&gt;Controllers&lt;/font&gt;" style="rounded=1;whiteSpace=wrap;html=1;fontSize=15;" parent="1" vertex="1">
          <mxGeometry x="510" y="697" width="90" height="40" as="geometry" />
        </mxCell>
        <mxCell id="YMdhZk9BwAZFzqvucl1a-7" style="edgeStyle=orthogonalEdgeStyle;rounded=0;orthogonalLoop=1;jettySize=auto;html=1;exitX=0.25;exitY=0;exitDx=0;exitDy=0;entryX=0.25;entryY=1;entryDx=0;entryDy=0;" parent="1" source="XDiG-Vu3PWWN5GJQWQn_-17" target="XDiG-Vu3PWWN5GJQWQn_-16" edge="1">
          <mxGeometry relative="1" as="geometry" />
        </mxCell>
        <mxCell id="YMdhZk9BwAZFzqvucl1a-14" value="Send Data" style="edgeLabel;html=1;align=center;verticalAlign=middle;resizable=0;points=[];" parent="YMdhZk9BwAZFzqvucl1a-7" connectable="0" vertex="1">
          <mxGeometry x="0.3145" relative="1" as="geometry">
            <mxPoint x="-32" y="2" as="offset" />
          </mxGeometry>
        </mxCell>
        <mxCell id="XDiG-Vu3PWWN5GJQWQn_-17" value="&lt;font&gt;Models&lt;/font&gt;" style="rounded=1;whiteSpace=wrap;html=1;fontSize=15;" parent="1" vertex="1">
          <mxGeometry x="510" y="798" width="90" height="40" as="geometry" />
        </mxCell>
        <mxCell id="XDiG-Vu3PWWN5GJQWQn_-18" style="edgeStyle=orthogonalEdgeStyle;rounded=0;orthogonalLoop=1;jettySize=auto;html=1;entryX=1;entryY=0.5;entryDx=0;entryDy=0;exitX=0.5;exitY=1;exitDx=0;exitDy=0;exitPerimeter=0;startArrow=classic;startFill=1;endArrow=none;endFill=0;fontSize=15;" parent="1" source="XDiG-Vu3PWWN5GJQWQn_-10" target="XDiG-Vu3PWWN5GJQWQn_-17" edge="1">
          <mxGeometry relative="1" as="geometry" />
        </mxCell>
        <mxCell id="XDiG-Vu3PWWN5GJQWQn_-19" value="Interacts" style="edgeLabel;html=1;align=center;verticalAlign=middle;resizable=0;points=[];fontSize=15;" parent="XDiG-Vu3PWWN5GJQWQn_-18" vertex="1" connectable="0">
          <mxGeometry x="-0.0398" y="4" relative="1" as="geometry">
            <mxPoint x="-68" y="101" as="offset" />
          </mxGeometry>
        </mxCell>
        <mxCell id="XDiG-Vu3PWWN5GJQWQn_-22" style="edgeStyle=orthogonalEdgeStyle;rounded=0;orthogonalLoop=1;jettySize=auto;html=1;exitX=1;exitY=0.25;exitDx=0;exitDy=0;exitPerimeter=0;entryX=0;entryY=0.5;entryDx=0;entryDy=0;" parent="1" source="XDiG-Vu3PWWN5GJQWQn_-21" target="XDiG-Vu3PWWN5GJQWQn_-16" edge="1">
          <mxGeometry relative="1" as="geometry" />
        </mxCell>
        <mxCell id="XDiG-Vu3PWWN5GJQWQn_-23" value="&lt;font style=&quot;font-size: 15px;&quot;&gt;Send Data&lt;br&gt;&lt;/font&gt;" style="edgeLabel;html=1;align=center;verticalAlign=middle;resizable=0;points=[];" parent="XDiG-Vu3PWWN5GJQWQn_-22" vertex="1" connectable="0">
          <mxGeometry x="-0.2537" y="-2" relative="1" as="geometry">
            <mxPoint x="-5" y="-14" as="offset" />
          </mxGeometry>
        </mxCell>
        <mxCell id="XDiG-Vu3PWWN5GJQWQn_-21" value="Agent" style="html=1;shape=mxgraph.sysml.package;overflow=fill;labelX=45;align=left;spacingLeft=5;verticalAlign=top;spacingTop=-3;fontSize=15;" parent="1" vertex="1">
          <mxGeometry x="120" y="670" width="240" height="186" as="geometry" />
        </mxCell>
        <mxCell id="XDiG-Vu3PWWN5GJQWQn_-26" style="edgeStyle=orthogonalEdgeStyle;rounded=0;orthogonalLoop=1;jettySize=auto;html=1;exitX=0.5;exitY=1;exitDx=0;exitDy=0;entryX=0.5;entryY=0;entryDx=0;entryDy=0;" parent="1" source="XDiG-Vu3PWWN5GJQWQn_-24" target="XDiG-Vu3PWWN5GJQWQn_-25" edge="1">
          <mxGeometry relative="1" as="geometry" />
        </mxCell>
        <mxCell id="XDiG-Vu3PWWN5GJQWQn_-27" value="&lt;font style=&quot;font-size: 15px;&quot;&gt;Creates information&lt;br&gt;&lt;/font&gt;" style="edgeLabel;html=1;align=center;verticalAlign=middle;resizable=0;points=[];" parent="XDiG-Vu3PWWN5GJQWQn_-26" vertex="1" connectable="0">
          <mxGeometry x="0.01" y="-2" relative="1" as="geometry">
            <mxPoint x="-69" y="-6" as="offset" />
          </mxGeometry>
        </mxCell>
        <mxCell id="XDiG-Vu3PWWN5GJQWQn_-24" value="Data Collectors" style="rounded=1;whiteSpace=wrap;html=1;fontSize=15;" parent="1" vertex="1">
          <mxGeometry x="190" y="698" width="130" height="40" as="geometry" />
        </mxCell>
        <mxCell id="XDiG-Vu3PWWN5GJQWQn_-25" value="Basic Information" style="rounded=1;whiteSpace=wrap;html=1;fontSize=15;" parent="1" vertex="1">
          <mxGeometry x="190" y="798" width="130" height="40" as="geometry" />
        </mxCell>
        <mxCell id="XDiG-Vu3PWWN5GJQWQn_-34" style="edgeStyle=orthogonalEdgeStyle;rounded=0;orthogonalLoop=1;jettySize=auto;html=1;entryX=0.5;entryY=0;entryDx=0;entryDy=0;" parent="1" source="XDiG-Vu3PWWN5GJQWQn_-28" target="XDiG-Vu3PWWN5GJQWQn_-16" edge="1">
          <mxGeometry relative="1" as="geometry">
            <Array as="points">
              <mxPoint x="270" y="620" />
              <mxPoint x="555" y="620" />
            </Array>
          </mxGeometry>
        </mxCell>
        <mxCell id="XDiG-Vu3PWWN5GJQWQn_-35" value="&lt;font style=&quot;font-size: 15px;&quot;&gt;Observes&lt;/font&gt;" style="edgeLabel;html=1;align=center;verticalAlign=middle;resizable=0;points=[];" parent="XDiG-Vu3PWWN5GJQWQn_-34" vertex="1" connectable="0">
          <mxGeometry x="-0.1085" y="-6" relative="1" as="geometry">
            <mxPoint y="-20" as="offset" />
          </mxGeometry>
        </mxCell>
        <mxCell id="XDiG-Vu3PWWN5GJQWQn_-36" style="edgeStyle=orthogonalEdgeStyle;rounded=0;orthogonalLoop=1;jettySize=auto;html=1;entryX=0.5;entryY=1;entryDx=0;entryDy=0;" parent="1" source="XDiG-Vu3PWWN5GJQWQn_-28" target="XDiG-Vu3PWWN5GJQWQn_-3" edge="1">
          <mxGeometry relative="1" as="geometry" />
        </mxCell>
        <mxCell id="XDiG-Vu3PWWN5GJQWQn_-37" value="&lt;font style=&quot;font-size: 15px;&quot;&gt;Observes&lt;/font&gt;" style="edgeLabel;html=1;align=center;verticalAlign=middle;resizable=0;points=[];" parent="XDiG-Vu3PWWN5GJQWQn_-36" vertex="1" connectable="0">
          <mxGeometry x="-0.2313" y="2" relative="1" as="geometry">
            <mxPoint x="-34" as="offset" />
          </mxGeometry>
        </mxCell>
        <mxCell id="XDiG-Vu3PWWN5GJQWQn_-28" value="Alarm Manager" style="html=1;shape=mxgraph.sysml.package;overflow=fill;labelX=108.75;align=left;spacingLeft=5;verticalAlign=top;spacingTop=-3;fontSize=15;" parent="1" vertex="1">
          <mxGeometry x="188" y="420" width="156" height="120" as="geometry" />
        </mxCell>
        <mxCell id="XDiG-Vu3PWWN5GJQWQn_-29" value="&lt;font&gt;Models&lt;/font&gt;" style="rounded=1;whiteSpace=wrap;html=1;fontSize=15;" parent="1" vertex="1">
          <mxGeometry x="223" y="470" width="90" height="40" as="geometry" />
        </mxCell>
        <mxCell id="XDiG-Vu3PWWN5GJQWQn_-30" style="edgeStyle=orthogonalEdgeStyle;rounded=0;orthogonalLoop=1;jettySize=auto;html=1;exitX=1;exitY=0.25;exitDx=0;exitDy=0;exitPerimeter=0;entryX=0;entryY=0.15;entryDx=0;entryDy=0;entryPerimeter=0;" parent="1" source="XDiG-Vu3PWWN5GJQWQn_-28" target="XDiG-Vu3PWWN5GJQWQn_-10" edge="1">
          <mxGeometry relative="1" as="geometry">
            <mxPoint x="710" y="450" as="targetPoint" />
            <Array as="points">
              <mxPoint x="344" y="446" />
            </Array>
          </mxGeometry>
        </mxCell>
        <mxCell id="XDiG-Vu3PWWN5GJQWQn_-31" value="&lt;font style=&quot;font-size: 15px;&quot;&gt;Interacts&lt;/font&gt;" style="edgeLabel;html=1;align=center;verticalAlign=middle;resizable=0;points=[];" parent="XDiG-Vu3PWWN5GJQWQn_-30" vertex="1" connectable="0">
          <mxGeometry x="-0.0961" y="-2" relative="1" as="geometry">
            <mxPoint x="-20" y="-15" as="offset" />
          </mxGeometry>
        </mxCell>
        <mxCell id="XDiG-Vu3PWWN5GJQWQn_-32" style="edgeStyle=orthogonalEdgeStyle;rounded=0;orthogonalLoop=1;jettySize=auto;html=1;exitX=0;exitY=0.85;exitDx=0;exitDy=0;exitPerimeter=0;" parent="1" source="XDiG-Vu3PWWN5GJQWQn_-10" target="XDiG-Vu3PWWN5GJQWQn_-28" edge="1">
          <mxGeometry relative="1" as="geometry">
            <mxPoint x="700" y="480" as="sourcePoint" />
            <Array as="points">
              <mxPoint x="540" y="488" />
              <mxPoint x="540" y="488" />
            </Array>
          </mxGeometry>
        </mxCell>
        <mxCell id="XDiG-Vu3PWWN5GJQWQn_-33" value="&lt;font style=&quot;font-size: 15px;&quot;&gt;Send Data&lt;br&gt;&lt;/font&gt;" style="edgeLabel;html=1;align=center;verticalAlign=middle;resizable=0;points=[];" parent="XDiG-Vu3PWWN5GJQWQn_-32" vertex="1" connectable="0">
          <mxGeometry x="-0.4091" y="1" relative="1" as="geometry">
            <mxPoint x="-109" y="21" as="offset" />
          </mxGeometry>
        </mxCell>
        <mxCell id="YMdhZk9BwAZFzqvucl1a-15" value="&lt;font style=&quot;font-size: 24px;&quot;&gt;UITManager - Architecture Diagram&lt;br&gt;&lt;/font&gt;" style="text;html=1;align=center;verticalAlign=middle;resizable=0;points=[];autosize=1;strokeColor=none;fillColor=none;" parent="1" vertex="1">
          <mxGeometry x="214" y="23" width="400" height="40" as="geometry" />
        </mxCell>
      </root>
    </mxGraphModel>
  </diagram>
</mxfile>
